<mxfile host="app.diagrams.net" modified="2024-05-28T09:39:06.216Z" agent="Mozilla/5.0 (Windows NT 10.0; Win64; x64) AppleWebKit/537.36 (KHTML, like Gecko) Chrome/125.0.0.0 Safari/537.36" etag="IKACJKf50jLitp30OCF3" version="24.4.9" type="device">
  <diagram id="duWbMV1fA_2wpgob3wu-" name="Página-1">
    <mxGraphModel dx="3616" dy="2405" grid="1" gridSize="10" guides="1" tooltips="1" connect="1" arrows="1" fold="1" page="1" pageScale="1" pageWidth="827" pageHeight="1169" math="0" shadow="0">
      <root>
        <mxCell id="0" />
        <mxCell id="1" parent="0" />
        <mxCell id="bkK7I-Fg07HYIx4hsoc1-56" value="Cliente" style="swimlane;fontStyle=0;childLayout=stackLayout;horizontal=1;startSize=26;horizontalStack=0;resizeParent=1;resizeParentMax=0;resizeLast=0;collapsible=1;marginBottom=0;align=center;fontSize=14;" parent="1" vertex="1">
          <mxGeometry x="1200" y="-30" width="160" height="206" as="geometry" />
        </mxCell>
        <mxCell id="bkK7I-Fg07HYIx4hsoc1-57" value="-idCliente : int" style="text;strokeColor=none;fillColor=none;spacingLeft=4;spacingRight=4;overflow=hidden;rotatable=0;points=[[0,0.5],[1,0.5]];portConstraint=eastwest;fontSize=12;" parent="bkK7I-Fg07HYIx4hsoc1-56" vertex="1">
          <mxGeometry y="26" width="160" height="26" as="geometry" />
        </mxCell>
        <mxCell id="bkK7I-Fg07HYIx4hsoc1-58" value="-nombre : String" style="text;strokeColor=none;fillColor=none;spacingLeft=4;spacingRight=4;overflow=hidden;rotatable=0;points=[[0,0.5],[1,0.5]];portConstraint=eastwest;fontSize=12;" parent="bkK7I-Fg07HYIx4hsoc1-56" vertex="1">
          <mxGeometry y="52" width="160" height="26" as="geometry" />
        </mxCell>
        <mxCell id="bkK7I-Fg07HYIx4hsoc1-59" value="-apellidos : String" style="text;strokeColor=none;fillColor=none;spacingLeft=4;spacingRight=4;overflow=hidden;rotatable=0;points=[[0,0.5],[1,0.5]];portConstraint=eastwest;fontSize=12;" parent="bkK7I-Fg07HYIx4hsoc1-56" vertex="1">
          <mxGeometry y="78" width="160" height="32" as="geometry" />
        </mxCell>
        <mxCell id="bkK7I-Fg07HYIx4hsoc1-60" value="-email : String" style="text;strokeColor=none;fillColor=none;spacingLeft=4;spacingRight=4;overflow=hidden;rotatable=0;points=[[0,0.5],[1,0.5]];portConstraint=eastwest;fontSize=12;" parent="bkK7I-Fg07HYIx4hsoc1-56" vertex="1">
          <mxGeometry y="110" width="160" height="32" as="geometry" />
        </mxCell>
        <mxCell id="bkK7I-Fg07HYIx4hsoc1-61" value="-password : String" style="text;strokeColor=none;fillColor=none;spacingLeft=4;spacingRight=4;overflow=hidden;rotatable=0;points=[[0,0.5],[1,0.5]];portConstraint=eastwest;fontSize=12;" parent="bkK7I-Fg07HYIx4hsoc1-56" vertex="1">
          <mxGeometry y="142" width="160" height="32" as="geometry" />
        </mxCell>
        <mxCell id="bkK7I-Fg07HYIx4hsoc1-91" value="-nivelPermiso : int" style="text;strokeColor=none;fillColor=none;spacingLeft=4;spacingRight=4;overflow=hidden;rotatable=0;points=[[0,0.5],[1,0.5]];portConstraint=eastwest;fontSize=12;" parent="bkK7I-Fg07HYIx4hsoc1-56" vertex="1">
          <mxGeometry y="174" width="160" height="32" as="geometry" />
        </mxCell>
        <mxCell id="fkBuL_MlyIpmujiKjIDv-1" value="&lt;&lt;interface&gt;&gt;&#xa;autorService" style="swimlane;fontStyle=0;childLayout=stackLayout;horizontal=1;startSize=40;horizontalStack=0;resizeParent=1;resizeParentMax=0;resizeLast=0;collapsible=1;marginBottom=0;align=center;fontSize=14;" parent="1" vertex="1">
          <mxGeometry x="1030" y="1060" width="370" height="274" as="geometry" />
        </mxCell>
        <mxCell id="fkBuL_MlyIpmujiKjIDv-2" value="+save(AutorDTORequest dto) : HrefEntityDTO " style="text;strokeColor=none;fillColor=none;spacingLeft=4;spacingRight=4;overflow=hidden;rotatable=0;points=[[0,0.5],[1,0.5]];portConstraint=eastwest;fontSize=12;" parent="fkBuL_MlyIpmujiKjIDv-1" vertex="1">
          <mxGeometry y="40" width="370" height="26" as="geometry" />
        </mxCell>
        <mxCell id="fkBuL_MlyIpmujiKjIDv-3" value="+saveAutorSQL(AutorDTORequest dto) : AutorDTO" style="text;strokeColor=none;fillColor=none;spacingLeft=4;spacingRight=4;overflow=hidden;rotatable=0;points=[[0,0.5],[1,0.5]];portConstraint=eastwest;fontSize=12;" parent="fkBuL_MlyIpmujiKjIDv-1" vertex="1">
          <mxGeometry y="66" width="370" height="26" as="geometry" />
        </mxCell>
        <mxCell id="fkBuL_MlyIpmujiKjIDv-4" value="+findById(int id) : AutorDTO " style="text;strokeColor=none;fillColor=none;spacingLeft=4;spacingRight=4;overflow=hidden;rotatable=0;points=[[0,0.5],[1,0.5]];portConstraint=eastwest;fontSize=12;" parent="fkBuL_MlyIpmujiKjIDv-1" vertex="1">
          <mxGeometry y="92" width="370" height="26" as="geometry" />
        </mxCell>
        <mxCell id="fkBuL_MlyIpmujiKjIDv-8" value="+findAll() : List&lt;AutorDTO&gt; " style="text;strokeColor=none;fillColor=none;spacingLeft=4;spacingRight=4;overflow=hidden;rotatable=0;points=[[0,0.5],[1,0.5]];portConstraint=eastwest;fontSize=12;" parent="fkBuL_MlyIpmujiKjIDv-1" vertex="1">
          <mxGeometry y="118" width="370" height="26" as="geometry" />
        </mxCell>
        <mxCell id="fkBuL_MlyIpmujiKjIDv-7" value="+update(AutorDTORequest dto, int id) : HrefEntityDTO " style="text;strokeColor=none;fillColor=none;spacingLeft=4;spacingRight=4;overflow=hidden;rotatable=0;points=[[0,0.5],[1,0.5]];portConstraint=eastwest;fontSize=12;" parent="fkBuL_MlyIpmujiKjIDv-1" vertex="1">
          <mxGeometry y="144" width="370" height="26" as="geometry" />
        </mxCell>
        <mxCell id="fkBuL_MlyIpmujiKjIDv-6" value="+delete(int id) : HrefEntityDTO " style="text;strokeColor=none;fillColor=none;spacingLeft=4;spacingRight=4;overflow=hidden;rotatable=0;points=[[0,0.5],[1,0.5]];portConstraint=eastwest;fontSize=12;" parent="fkBuL_MlyIpmujiKjIDv-1" vertex="1">
          <mxGeometry y="170" width="370" height="26" as="geometry" />
        </mxCell>
        <mxCell id="fkBuL_MlyIpmujiKjIDv-9" value="+buscarKeyWordSQL(String nombre) : List&lt;AutorDTO&gt; " style="text;strokeColor=none;fillColor=none;spacingLeft=4;spacingRight=4;overflow=hidden;rotatable=0;points=[[0,0.5],[1,0.5]];portConstraint=eastwest;fontSize=12;" parent="fkBuL_MlyIpmujiKjIDv-1" vertex="1">
          <mxGeometry y="196" width="370" height="26" as="geometry" />
        </mxCell>
        <mxCell id="fkBuL_MlyIpmujiKjIDv-11" value="+obtenerIdAutor(String nombreCompleto) : int" style="text;strokeColor=none;fillColor=none;spacingLeft=4;spacingRight=4;overflow=hidden;rotatable=0;points=[[0,0.5],[1,0.5]];portConstraint=eastwest;fontSize=12;" parent="fkBuL_MlyIpmujiKjIDv-1" vertex="1">
          <mxGeometry y="222" width="370" height="26" as="geometry" />
        </mxCell>
        <mxCell id="fkBuL_MlyIpmujiKjIDv-12" value="+findByName(String nombre, String apellidos) : Optional&lt;AutorDTO&gt; " style="text;strokeColor=none;fillColor=none;spacingLeft=4;spacingRight=4;overflow=hidden;rotatable=0;points=[[0,0.5],[1,0.5]];portConstraint=eastwest;fontSize=12;" parent="fkBuL_MlyIpmujiKjIDv-1" vertex="1">
          <mxGeometry y="248" width="370" height="26" as="geometry" />
        </mxCell>
        <mxCell id="bkK7I-Fg07HYIx4hsoc1-17" value="Libro" style="swimlane;fontStyle=0;childLayout=stackLayout;horizontal=1;startSize=26;horizontalStack=0;resizeParent=1;resizeParentMax=0;resizeLast=0;collapsible=1;marginBottom=0;align=center;fontSize=14;" parent="1" vertex="1">
          <mxGeometry x="1100" y="660" width="160" height="238" as="geometry" />
        </mxCell>
        <mxCell id="bkK7I-Fg07HYIx4hsoc1-18" value="-idLibro : int" style="text;strokeColor=none;fillColor=none;spacingLeft=4;spacingRight=4;overflow=hidden;rotatable=0;points=[[0,0.5],[1,0.5]];portConstraint=eastwest;fontSize=12;" parent="bkK7I-Fg07HYIx4hsoc1-17" vertex="1">
          <mxGeometry y="26" width="160" height="26" as="geometry" />
        </mxCell>
        <mxCell id="bkK7I-Fg07HYIx4hsoc1-19" value="-titulo : String" style="text;strokeColor=none;fillColor=none;spacingLeft=4;spacingRight=4;overflow=hidden;rotatable=0;points=[[0,0.5],[1,0.5]];portConstraint=eastwest;fontSize=12;" parent="bkK7I-Fg07HYIx4hsoc1-17" vertex="1">
          <mxGeometry y="52" width="160" height="26" as="geometry" />
        </mxCell>
        <mxCell id="bkK7I-Fg07HYIx4hsoc1-20" value="-autor : Autor" style="text;strokeColor=none;fillColor=none;spacingLeft=4;spacingRight=4;overflow=hidden;rotatable=0;points=[[0,0.5],[1,0.5]];portConstraint=eastwest;fontSize=12;" parent="bkK7I-Fg07HYIx4hsoc1-17" vertex="1">
          <mxGeometry y="78" width="160" height="32" as="geometry" />
        </mxCell>
        <mxCell id="bkK7I-Fg07HYIx4hsoc1-21" value="-genero: String" style="text;strokeColor=none;fillColor=none;spacingLeft=4;spacingRight=4;overflow=hidden;rotatable=0;points=[[0,0.5],[1,0.5]];portConstraint=eastwest;fontSize=12;" parent="bkK7I-Fg07HYIx4hsoc1-17" vertex="1">
          <mxGeometry y="110" width="160" height="32" as="geometry" />
        </mxCell>
        <mxCell id="bkK7I-Fg07HYIx4hsoc1-45" value="-paginas : int" style="text;strokeColor=none;fillColor=none;spacingLeft=4;spacingRight=4;overflow=hidden;rotatable=0;points=[[0,0.5],[1,0.5]];portConstraint=eastwest;fontSize=12;" parent="bkK7I-Fg07HYIx4hsoc1-17" vertex="1">
          <mxGeometry y="142" width="160" height="32" as="geometry" />
        </mxCell>
        <mxCell id="bkK7I-Fg07HYIx4hsoc1-23" value="-editorial : String" style="text;strokeColor=none;fillColor=none;spacingLeft=4;spacingRight=4;overflow=hidden;rotatable=0;points=[[0,0.5],[1,0.5]];portConstraint=eastwest;fontSize=12;" parent="bkK7I-Fg07HYIx4hsoc1-17" vertex="1">
          <mxGeometry y="174" width="160" height="32" as="geometry" />
        </mxCell>
        <mxCell id="bkK7I-Fg07HYIx4hsoc1-30" value="-descripcion : String" style="text;strokeColor=none;fillColor=none;spacingLeft=4;spacingRight=4;overflow=hidden;rotatable=0;points=[[0,0.5],[1,0.5]];portConstraint=eastwest;fontSize=12;" parent="bkK7I-Fg07HYIx4hsoc1-17" vertex="1">
          <mxGeometry y="206" width="160" height="32" as="geometry" />
        </mxCell>
        <mxCell id="bkK7I-Fg07HYIx4hsoc1-86" value="&lt;&lt;interface&gt;&gt;&#xa;LibroService" style="swimlane;fontStyle=0;childLayout=stackLayout;horizontal=1;startSize=40;horizontalStack=0;resizeParent=1;resizeParentMax=0;resizeLast=0;collapsible=1;marginBottom=0;align=center;fontSize=14;" parent="1" vertex="1">
          <mxGeometry x="1300" y="676" width="390" height="222" as="geometry" />
        </mxCell>
        <mxCell id="bkK7I-Fg07HYIx4hsoc1-87" value="+save(LibroDTORequest dto) : HrefEntityDTO" style="text;strokeColor=none;fillColor=none;spacingLeft=4;spacingRight=4;overflow=hidden;rotatable=0;points=[[0,0.5],[1,0.5]];portConstraint=eastwest;fontSize=12;" parent="bkK7I-Fg07HYIx4hsoc1-86" vertex="1">
          <mxGeometry y="40" width="390" height="26" as="geometry" />
        </mxCell>
        <mxCell id="bkK7I-Fg07HYIx4hsoc1-88" value="+findById(int id) : LibroDTO" style="text;strokeColor=none;fillColor=none;spacingLeft=4;spacingRight=4;overflow=hidden;rotatable=0;points=[[0,0.5],[1,0.5]];portConstraint=eastwest;fontSize=12;" parent="bkK7I-Fg07HYIx4hsoc1-86" vertex="1">
          <mxGeometry y="66" width="390" height="26" as="geometry" />
        </mxCell>
        <mxCell id="bkK7I-Fg07HYIx4hsoc1-89" value="+findAll(): List&lt;LibroDTO&gt;" style="text;strokeColor=none;fillColor=none;spacingLeft=4;spacingRight=4;overflow=hidden;rotatable=0;points=[[0,0.5],[1,0.5]];portConstraint=eastwest;fontSize=12;" parent="bkK7I-Fg07HYIx4hsoc1-86" vertex="1">
          <mxGeometry y="92" width="390" height="26" as="geometry" />
        </mxCell>
        <mxCell id="fkBuL_MlyIpmujiKjIDv-13" value="+update(LibroDTORequest dto, int id) : HrefEntityDTO" style="text;strokeColor=none;fillColor=none;spacingLeft=4;spacingRight=4;overflow=hidden;rotatable=0;points=[[0,0.5],[1,0.5]];portConstraint=eastwest;fontSize=12;" parent="bkK7I-Fg07HYIx4hsoc1-86" vertex="1">
          <mxGeometry y="118" width="390" height="26" as="geometry" />
        </mxCell>
        <mxCell id="fkBuL_MlyIpmujiKjIDv-16" value="+delete(int id): HrefEntityDTO" style="text;strokeColor=none;fillColor=none;spacingLeft=4;spacingRight=4;overflow=hidden;rotatable=0;points=[[0,0.5],[1,0.5]];portConstraint=eastwest;fontSize=12;" parent="bkK7I-Fg07HYIx4hsoc1-86" vertex="1">
          <mxGeometry y="144" width="390" height="26" as="geometry" />
        </mxCell>
        <mxCell id="fkBuL_MlyIpmujiKjIDv-15" value="+findByTitle(String title, Pageable pageable): Page&lt;LibroDTO&gt;" style="text;strokeColor=none;fillColor=none;spacingLeft=4;spacingRight=4;overflow=hidden;rotatable=0;points=[[0,0.5],[1,0.5]];portConstraint=eastwest;fontSize=12;" parent="bkK7I-Fg07HYIx4hsoc1-86" vertex="1">
          <mxGeometry y="170" width="390" height="26" as="geometry" />
        </mxCell>
        <mxCell id="hye1ik-mMk8FVh-fmaRb-26" value="+findByAuthorId(int idAutor, Pageable pageable): Page&lt;LibroDTO&gt;" style="text;strokeColor=none;fillColor=none;spacingLeft=4;spacingRight=4;overflow=hidden;rotatable=0;points=[[0,0.5],[1,0.5]];portConstraint=eastwest;fontSize=12;" vertex="1" parent="bkK7I-Fg07HYIx4hsoc1-86">
          <mxGeometry y="196" width="390" height="26" as="geometry" />
        </mxCell>
        <mxCell id="bkK7I-Fg07HYIx4hsoc1-68" value="&lt;&lt;interface&gt;&gt;&#xa;ClienteService" style="swimlane;fontStyle=0;childLayout=stackLayout;horizontal=1;startSize=40;horizontalStack=0;resizeParent=1;resizeParentMax=0;resizeLast=0;collapsible=1;marginBottom=0;align=center;fontSize=14;" parent="1" vertex="1">
          <mxGeometry x="1520" y="10" width="330" height="170" as="geometry" />
        </mxCell>
        <mxCell id="bkK7I-Fg07HYIx4hsoc1-69" value="+save(ClienteDTORequest dto) : HrefEntityDTO" style="text;strokeColor=none;fillColor=none;spacingLeft=4;spacingRight=4;overflow=hidden;rotatable=0;points=[[0,0.5],[1,0.5]];portConstraint=eastwest;fontSize=12;" parent="bkK7I-Fg07HYIx4hsoc1-68" vertex="1">
          <mxGeometry y="40" width="330" height="26" as="geometry" />
        </mxCell>
        <mxCell id="bkK7I-Fg07HYIx4hsoc1-70" value="+findById(int id) : ClienteDTO" style="text;strokeColor=none;fillColor=none;spacingLeft=4;spacingRight=4;overflow=hidden;rotatable=0;points=[[0,0.5],[1,0.5]];portConstraint=eastwest;fontSize=12;" parent="bkK7I-Fg07HYIx4hsoc1-68" vertex="1">
          <mxGeometry y="66" width="330" height="26" as="geometry" />
        </mxCell>
        <mxCell id="bkK7I-Fg07HYIx4hsoc1-80" value="+findAll() : List&lt;ClienteDTO&gt;" style="text;strokeColor=none;fillColor=none;spacingLeft=4;spacingRight=4;overflow=hidden;rotatable=0;points=[[0,0.5],[1,0.5]];portConstraint=eastwest;fontSize=12;" parent="bkK7I-Fg07HYIx4hsoc1-68" vertex="1">
          <mxGeometry y="92" width="330" height="26" as="geometry" />
        </mxCell>
        <mxCell id="SZb_EIpK2yRwcwNHgwDC-5" value="+update(ClienteDTORequest dto, int id) : HrefEntityDTO" style="text;strokeColor=none;fillColor=none;spacingLeft=4;spacingRight=4;overflow=hidden;rotatable=0;points=[[0,0.5],[1,0.5]];portConstraint=eastwest;fontSize=12;" parent="bkK7I-Fg07HYIx4hsoc1-68" vertex="1">
          <mxGeometry y="118" width="330" height="26" as="geometry" />
        </mxCell>
        <mxCell id="SZb_EIpK2yRwcwNHgwDC-6" value="+delete(int id) : HrefEntityDTO" style="text;strokeColor=none;fillColor=none;spacingLeft=4;spacingRight=4;overflow=hidden;rotatable=0;points=[[0,0.5],[1,0.5]];portConstraint=eastwest;fontSize=12;" parent="bkK7I-Fg07HYIx4hsoc1-68" vertex="1">
          <mxGeometry y="144" width="330" height="26" as="geometry" />
        </mxCell>
        <mxCell id="SZb_EIpK2yRwcwNHgwDC-22" value="ClienteCompraLibro" style="swimlane;fontStyle=0;childLayout=stackLayout;horizontal=1;startSize=26;horizontalStack=0;resizeParent=1;resizeParentMax=0;resizeLast=0;collapsible=1;marginBottom=0;align=center;fontSize=14;" parent="1" vertex="1">
          <mxGeometry x="1380" y="298" width="160" height="174" as="geometry" />
        </mxCell>
        <mxCell id="SZb_EIpK2yRwcwNHgwDC-23" value="-id : int" style="text;strokeColor=none;fillColor=none;spacingLeft=4;spacingRight=4;overflow=hidden;rotatable=0;points=[[0,0.5],[1,0.5]];portConstraint=eastwest;fontSize=12;" parent="SZb_EIpK2yRwcwNHgwDC-22" vertex="1">
          <mxGeometry y="26" width="160" height="26" as="geometry" />
        </mxCell>
        <mxCell id="SZb_EIpK2yRwcwNHgwDC-24" value="-cliente : Cliente" style="text;strokeColor=none;fillColor=none;spacingLeft=4;spacingRight=4;overflow=hidden;rotatable=0;points=[[0,0.5],[1,0.5]];portConstraint=eastwest;fontSize=12;" parent="SZb_EIpK2yRwcwNHgwDC-22" vertex="1">
          <mxGeometry y="52" width="160" height="26" as="geometry" />
        </mxCell>
        <mxCell id="SZb_EIpK2yRwcwNHgwDC-25" value="-libro : Libro" style="text;strokeColor=none;fillColor=none;spacingLeft=4;spacingRight=4;overflow=hidden;rotatable=0;points=[[0,0.5],[1,0.5]];portConstraint=eastwest;fontSize=12;" parent="SZb_EIpK2yRwcwNHgwDC-22" vertex="1">
          <mxGeometry y="78" width="160" height="32" as="geometry" />
        </mxCell>
        <mxCell id="SZb_EIpK2yRwcwNHgwDC-26" value="-fechaCompra : Date" style="text;strokeColor=none;fillColor=none;spacingLeft=4;spacingRight=4;overflow=hidden;rotatable=0;points=[[0,0.5],[1,0.5]];portConstraint=eastwest;fontSize=12;" parent="SZb_EIpK2yRwcwNHgwDC-22" vertex="1">
          <mxGeometry y="110" width="160" height="32" as="geometry" />
        </mxCell>
        <mxCell id="SZb_EIpK2yRwcwNHgwDC-27" value="-precio : Double" style="text;strokeColor=none;fillColor=none;spacingLeft=4;spacingRight=4;overflow=hidden;rotatable=0;points=[[0,0.5],[1,0.5]];portConstraint=eastwest;fontSize=12;" parent="SZb_EIpK2yRwcwNHgwDC-22" vertex="1">
          <mxGeometry y="142" width="160" height="32" as="geometry" />
        </mxCell>
        <mxCell id="SZb_EIpK2yRwcwNHgwDC-17" value="" style="endArrow=none;html=1;exitX=0;exitY=0.5;exitDx=0;exitDy=0;entryX=0;entryY=0.5;entryDx=0;entryDy=0;" parent="1" source="bkK7I-Fg07HYIx4hsoc1-45" target="2cph1p9zGiZ2XmndVDbQ-3" edge="1">
          <mxGeometry width="50" height="50" relative="1" as="geometry">
            <mxPoint x="1790" y="390" as="sourcePoint" />
            <mxPoint x="1840" y="340" as="targetPoint" />
          </mxGeometry>
        </mxCell>
        <mxCell id="2cph1p9zGiZ2XmndVDbQ-1" value="Autor" style="swimlane;fontStyle=0;childLayout=stackLayout;horizontal=1;startSize=26;horizontalStack=0;resizeParent=1;resizeParentMax=0;resizeLast=0;collapsible=1;marginBottom=0;align=center;fontSize=14;" parent="1" vertex="1">
          <mxGeometry x="780" y="1020" width="160" height="110" as="geometry" />
        </mxCell>
        <mxCell id="2cph1p9zGiZ2XmndVDbQ-2" value="-idAutor : int" style="text;strokeColor=none;fillColor=none;spacingLeft=4;spacingRight=4;overflow=hidden;rotatable=0;points=[[0,0.5],[1,0.5]];portConstraint=eastwest;fontSize=12;" parent="2cph1p9zGiZ2XmndVDbQ-1" vertex="1">
          <mxGeometry y="26" width="160" height="26" as="geometry" />
        </mxCell>
        <mxCell id="2cph1p9zGiZ2XmndVDbQ-3" value="-nombre : String" style="text;strokeColor=none;fillColor=none;spacingLeft=4;spacingRight=4;overflow=hidden;rotatable=0;points=[[0,0.5],[1,0.5]];portConstraint=eastwest;fontSize=12;" parent="2cph1p9zGiZ2XmndVDbQ-1" vertex="1">
          <mxGeometry y="52" width="160" height="26" as="geometry" />
        </mxCell>
        <mxCell id="2cph1p9zGiZ2XmndVDbQ-4" value="-apellidos : String" style="text;strokeColor=none;fillColor=none;spacingLeft=4;spacingRight=4;overflow=hidden;rotatable=0;points=[[0,0.5],[1,0.5]];portConstraint=eastwest;fontSize=12;" parent="2cph1p9zGiZ2XmndVDbQ-1" vertex="1">
          <mxGeometry y="78" width="160" height="32" as="geometry" />
        </mxCell>
        <mxCell id="SZb_EIpK2yRwcwNHgwDC-18" value="" style="endArrow=block;dashed=1;endFill=0;endSize=12;html=1;exitX=1;exitY=0.5;exitDx=0;exitDy=0;entryX=0;entryY=0.5;entryDx=0;entryDy=0;" parent="1" source="bkK7I-Fg07HYIx4hsoc1-59" edge="1" target="bkK7I-Fg07HYIx4hsoc1-69">
          <mxGeometry width="160" relative="1" as="geometry">
            <mxPoint x="1740" y="370" as="sourcePoint" />
            <mxPoint x="1740" y="144" as="targetPoint" />
          </mxGeometry>
        </mxCell>
        <mxCell id="SZb_EIpK2yRwcwNHgwDC-19" value="" style="endArrow=block;dashed=1;endFill=0;endSize=12;html=1;exitX=1;exitY=0.5;exitDx=0;exitDy=0;entryX=0;entryY=0.5;entryDx=0;entryDy=0;" parent="1" source="2cph1p9zGiZ2XmndVDbQ-2" target="fkBuL_MlyIpmujiKjIDv-3" edge="1">
          <mxGeometry width="160" relative="1" as="geometry">
            <mxPoint x="1750" y="380" as="sourcePoint" />
            <mxPoint x="1910" y="380" as="targetPoint" />
          </mxGeometry>
        </mxCell>
        <mxCell id="SZb_EIpK2yRwcwNHgwDC-20" value="" style="endArrow=block;dashed=1;endFill=0;endSize=12;html=1;exitX=1;exitY=0.5;exitDx=0;exitDy=0;entryX=0.023;entryY=-0.094;entryDx=0;entryDy=0;entryPerimeter=0;" parent="1" source="bkK7I-Fg07HYIx4hsoc1-21" target="bkK7I-Fg07HYIx4hsoc1-89" edge="1">
          <mxGeometry width="160" relative="1" as="geometry">
            <mxPoint x="1750" y="380" as="sourcePoint" />
            <mxPoint x="1910" y="380" as="targetPoint" />
          </mxGeometry>
        </mxCell>
        <mxCell id="SZb_EIpK2yRwcwNHgwDC-21" value="" style="endArrow=block;dashed=1;endFill=0;endSize=12;html=1;entryX=1;entryY=0.5;entryDx=0;entryDy=0;exitX=0;exitY=0.5;exitDx=0;exitDy=0;" parent="1" source="bkK7I-Fg07HYIx4hsoc1-40" target="bkK7I-Fg07HYIx4hsoc1-84" edge="1">
          <mxGeometry width="160" relative="1" as="geometry">
            <mxPoint x="1380" y="870" as="sourcePoint" />
            <mxPoint x="1300" y="910" as="targetPoint" />
          </mxGeometry>
        </mxCell>
        <mxCell id="SZb_EIpK2yRwcwNHgwDC-35" value="" style="endArrow=none;html=1;rounded=0;dashed=1;dashPattern=1 2;fontSize=12;entryX=-0.002;entryY=1.042;entryDx=0;entryDy=0;entryPerimeter=0;exitX=1.01;exitY=0.057;exitDx=0;exitDy=0;exitPerimeter=0;" parent="1" source="SZb_EIpK2yRwcwNHgwDC-22" target="bkK7I-Fg07HYIx4hsoc1-91" edge="1">
          <mxGeometry relative="1" as="geometry">
            <mxPoint x="1280" y="340" as="sourcePoint" />
            <mxPoint x="1440" y="340" as="targetPoint" />
          </mxGeometry>
        </mxCell>
        <mxCell id="SZb_EIpK2yRwcwNHgwDC-36" value="" style="resizable=0;html=1;align=left;verticalAlign=bottom;" parent="SZb_EIpK2yRwcwNHgwDC-35" connectable="0" vertex="1">
          <mxGeometry x="-1" relative="1" as="geometry" />
        </mxCell>
        <mxCell id="SZb_EIpK2yRwcwNHgwDC-38" value="" style="endArrow=none;html=1;rounded=0;dashed=1;dashPattern=1 2;fontSize=12;entryX=0.5;entryY=0;entryDx=0;entryDy=0;exitX=0;exitY=0.5;exitDx=0;exitDy=0;" parent="1" source="SZb_EIpK2yRwcwNHgwDC-27" target="bkK7I-Fg07HYIx4hsoc1-17" edge="1">
          <mxGeometry relative="1" as="geometry">
            <mxPoint x="1230" y="451" as="sourcePoint" />
            <mxPoint x="1419.6799999999998" y="267.34400000000005" as="targetPoint" />
          </mxGeometry>
        </mxCell>
        <mxCell id="SZb_EIpK2yRwcwNHgwDC-39" value="" style="resizable=0;html=1;align=left;verticalAlign=bottom;" parent="SZb_EIpK2yRwcwNHgwDC-38" connectable="0" vertex="1">
          <mxGeometry x="-1" relative="1" as="geometry" />
        </mxCell>
        <mxCell id="SZb_EIpK2yRwcwNHgwDC-50" value="&lt;&lt;interface&gt;&gt;&#xa;ClienteCompraLibroService" style="swimlane;fontStyle=0;childLayout=stackLayout;horizontal=1;startSize=40;horizontalStack=0;resizeParent=1;resizeParentMax=0;resizeLast=0;collapsible=1;marginBottom=0;align=center;fontSize=14;" parent="1" vertex="1">
          <mxGeometry x="820" y="274" width="480" height="222" as="geometry" />
        </mxCell>
        <mxCell id="SZb_EIpK2yRwcwNHgwDC-51" value="+save(ClienteCompraLibroDTORequest dto) : HrefEntityDTO" style="text;strokeColor=none;fillColor=none;spacingLeft=4;spacingRight=4;overflow=hidden;rotatable=0;points=[[0,0.5],[1,0.5]];portConstraint=eastwest;fontSize=12;" parent="SZb_EIpK2yRwcwNHgwDC-50" vertex="1">
          <mxGeometry y="40" width="480" height="26" as="geometry" />
        </mxCell>
        <mxCell id="SZb_EIpK2yRwcwNHgwDC-52" value="+findById(int id) : ClienteCompraLibroDTO" style="text;strokeColor=none;fillColor=none;spacingLeft=4;spacingRight=4;overflow=hidden;rotatable=0;points=[[0,0.5],[1,0.5]];portConstraint=eastwest;fontSize=12;" parent="SZb_EIpK2yRwcwNHgwDC-50" vertex="1">
          <mxGeometry y="66" width="480" height="26" as="geometry" />
        </mxCell>
        <mxCell id="SZb_EIpK2yRwcwNHgwDC-53" value="+findAll() : List&lt;ClienteCompraLibroDTO&gt;" style="text;strokeColor=none;fillColor=none;spacingLeft=4;spacingRight=4;overflow=hidden;rotatable=0;points=[[0,0.5],[1,0.5]];portConstraint=eastwest;fontSize=12;" parent="SZb_EIpK2yRwcwNHgwDC-50" vertex="1">
          <mxGeometry y="92" width="480" height="26" as="geometry" />
        </mxCell>
        <mxCell id="SZb_EIpK2yRwcwNHgwDC-54" value="+update(ClienteCompraLibroDTORequest dto, int id) : HrefEntityDTO" style="text;strokeColor=none;fillColor=none;spacingLeft=4;spacingRight=4;overflow=hidden;rotatable=0;points=[[0,0.5],[1,0.5]];portConstraint=eastwest;fontSize=12;" parent="SZb_EIpK2yRwcwNHgwDC-50" vertex="1">
          <mxGeometry y="118" width="480" height="26" as="geometry" />
        </mxCell>
        <mxCell id="SZb_EIpK2yRwcwNHgwDC-55" value="+delete(int id) : HrefEntityDTO" style="text;strokeColor=none;fillColor=none;spacingLeft=4;spacingRight=4;overflow=hidden;rotatable=0;points=[[0,0.5],[1,0.5]];portConstraint=eastwest;fontSize=12;" parent="SZb_EIpK2yRwcwNHgwDC-50" vertex="1">
          <mxGeometry y="144" width="480" height="26" as="geometry" />
        </mxCell>
        <mxCell id="hye1ik-mMk8FVh-fmaRb-25" value="+findByCliente(int idCliente, Pageable pageable) : Page&lt;ClienteCompraLibroDTO&gt;" style="text;strokeColor=none;fillColor=none;spacingLeft=4;spacingRight=4;overflow=hidden;rotatable=0;points=[[0,0.5],[1,0.5]];portConstraint=eastwest;fontSize=12;" vertex="1" parent="SZb_EIpK2yRwcwNHgwDC-50">
          <mxGeometry y="170" width="480" height="26" as="geometry" />
        </mxCell>
        <mxCell id="hye1ik-mMk8FVh-fmaRb-24" value="+findByLibreria(int idCliente, Pageable pageable) : Page&lt;ClienteCompraLibroDTO&gt;" style="text;strokeColor=none;fillColor=none;spacingLeft=4;spacingRight=4;overflow=hidden;rotatable=0;points=[[0,0.5],[1,0.5]];portConstraint=eastwest;fontSize=12;" vertex="1" parent="SZb_EIpK2yRwcwNHgwDC-50">
          <mxGeometry y="196" width="480" height="26" as="geometry" />
        </mxCell>
        <mxCell id="bkK7I-Fg07HYIx4hsoc1-81" value="&lt;&lt;interface&gt;&gt;&#xa;LibreriaService" style="swimlane;fontStyle=0;childLayout=stackLayout;horizontal=1;startSize=40;horizontalStack=0;resizeParent=1;resizeParentMax=0;resizeLast=0;collapsible=1;marginBottom=0;align=center;fontSize=14;" parent="1" vertex="1">
          <mxGeometry x="440" y="-40" width="330" height="170" as="geometry" />
        </mxCell>
        <mxCell id="bkK7I-Fg07HYIx4hsoc1-82" value="+save(LibreriaDTORequest dto) : HrefEntityDTO" style="text;strokeColor=none;fillColor=none;spacingLeft=4;spacingRight=4;overflow=hidden;rotatable=0;points=[[0,0.5],[1,0.5]];portConstraint=eastwest;fontSize=12;" parent="bkK7I-Fg07HYIx4hsoc1-81" vertex="1">
          <mxGeometry y="40" width="330" height="26" as="geometry" />
        </mxCell>
        <mxCell id="bkK7I-Fg07HYIx4hsoc1-83" value="+findById(int id) : LibreriaDTO" style="text;strokeColor=none;fillColor=none;spacingLeft=4;spacingRight=4;overflow=hidden;rotatable=0;points=[[0,0.5],[1,0.5]];portConstraint=eastwest;fontSize=12;" parent="bkK7I-Fg07HYIx4hsoc1-81" vertex="1">
          <mxGeometry y="66" width="330" height="26" as="geometry" />
        </mxCell>
        <mxCell id="bkK7I-Fg07HYIx4hsoc1-84" value="+findAll() : List&lt;LibreriaDTO&gt;" style="text;strokeColor=none;fillColor=none;spacingLeft=4;spacingRight=4;overflow=hidden;rotatable=0;points=[[0,0.5],[1,0.5]];portConstraint=eastwest;fontSize=12;" parent="bkK7I-Fg07HYIx4hsoc1-81" vertex="1">
          <mxGeometry y="92" width="330" height="26" as="geometry" />
        </mxCell>
        <mxCell id="bkK7I-Fg07HYIx4hsoc1-85" value="+update(LibreriaDTORequest dto, int id) : HrefEntityDTO" style="text;strokeColor=none;fillColor=none;spacingLeft=4;spacingRight=4;overflow=hidden;rotatable=0;points=[[0,0.5],[1,0.5]];portConstraint=eastwest;fontSize=12;" parent="bkK7I-Fg07HYIx4hsoc1-81" vertex="1">
          <mxGeometry y="118" width="330" height="26" as="geometry" />
        </mxCell>
        <mxCell id="SZb_EIpK2yRwcwNHgwDC-14" value="+delete(int id) : HrefEntityDTO" style="text;strokeColor=none;fillColor=none;spacingLeft=4;spacingRight=4;overflow=hidden;rotatable=0;points=[[0,0.5],[1,0.5]];portConstraint=eastwest;fontSize=12;" parent="bkK7I-Fg07HYIx4hsoc1-81" vertex="1">
          <mxGeometry y="144" width="330" height="26" as="geometry" />
        </mxCell>
        <mxCell id="SZb_EIpK2yRwcwNHgwDC-40" value="LibreriaLibro" style="swimlane;fontStyle=0;childLayout=stackLayout;horizontal=1;startSize=26;horizontalStack=0;resizeParent=1;resizeParentMax=0;resizeLast=0;collapsible=1;marginBottom=0;align=center;fontSize=14;" parent="1" vertex="1">
          <mxGeometry x="710" y="620" width="160" height="238" as="geometry" />
        </mxCell>
        <mxCell id="SZb_EIpK2yRwcwNHgwDC-41" value="-id : int" style="text;strokeColor=none;fillColor=none;spacingLeft=4;spacingRight=4;overflow=hidden;rotatable=0;points=[[0,0.5],[1,0.5]];portConstraint=eastwest;fontSize=12;" parent="SZb_EIpK2yRwcwNHgwDC-40" vertex="1">
          <mxGeometry y="26" width="160" height="26" as="geometry" />
        </mxCell>
        <mxCell id="SZb_EIpK2yRwcwNHgwDC-42" value="-libreria : Libreria" style="text;strokeColor=none;fillColor=none;spacingLeft=4;spacingRight=4;overflow=hidden;rotatable=0;points=[[0,0.5],[1,0.5]];portConstraint=eastwest;fontSize=12;" parent="SZb_EIpK2yRwcwNHgwDC-40" vertex="1">
          <mxGeometry y="52" width="160" height="26" as="geometry" />
        </mxCell>
        <mxCell id="SZb_EIpK2yRwcwNHgwDC-43" value="-libro : Libro" style="text;strokeColor=none;fillColor=none;spacingLeft=4;spacingRight=4;overflow=hidden;rotatable=0;points=[[0,0.5],[1,0.5]];portConstraint=eastwest;fontSize=12;" parent="SZb_EIpK2yRwcwNHgwDC-40" vertex="1">
          <mxGeometry y="78" width="160" height="32" as="geometry" />
        </mxCell>
        <mxCell id="SZb_EIpK2yRwcwNHgwDC-44" value="-cantidad : int" style="text;strokeColor=none;fillColor=none;spacingLeft=4;spacingRight=4;overflow=hidden;rotatable=0;points=[[0,0.5],[1,0.5]];portConstraint=eastwest;fontSize=12;" parent="SZb_EIpK2yRwcwNHgwDC-40" vertex="1">
          <mxGeometry y="110" width="160" height="32" as="geometry" />
        </mxCell>
        <mxCell id="SZb_EIpK2yRwcwNHgwDC-45" value="-precio : double" style="text;strokeColor=none;fillColor=none;spacingLeft=4;spacingRight=4;overflow=hidden;rotatable=0;points=[[0,0.5],[1,0.5]];portConstraint=eastwest;fontSize=12;" parent="SZb_EIpK2yRwcwNHgwDC-40" vertex="1">
          <mxGeometry y="142" width="160" height="32" as="geometry" />
        </mxCell>
        <mxCell id="SZb_EIpK2yRwcwNHgwDC-58" value="-edicion : int" style="text;strokeColor=none;fillColor=none;spacingLeft=4;spacingRight=4;overflow=hidden;rotatable=0;points=[[0,0.5],[1,0.5]];portConstraint=eastwest;fontSize=12;" parent="SZb_EIpK2yRwcwNHgwDC-40" vertex="1">
          <mxGeometry y="174" width="160" height="32" as="geometry" />
        </mxCell>
        <mxCell id="SZb_EIpK2yRwcwNHgwDC-59" value="-fechaPublicacion : Date" style="text;strokeColor=none;fillColor=none;spacingLeft=4;spacingRight=4;overflow=hidden;rotatable=0;points=[[0,0.5],[1,0.5]];portConstraint=eastwest;fontSize=12;" parent="SZb_EIpK2yRwcwNHgwDC-40" vertex="1">
          <mxGeometry y="206" width="160" height="32" as="geometry" />
        </mxCell>
        <mxCell id="SZb_EIpK2yRwcwNHgwDC-46" value="" style="endArrow=none;html=1;rounded=0;dashed=1;dashPattern=1 2;fontSize=12;entryX=0;entryY=0.5;entryDx=0;entryDy=0;exitX=1;exitY=0;exitDx=0;exitDy=0;" parent="1" source="SZb_EIpK2yRwcwNHgwDC-40" target="bkK7I-Fg07HYIx4hsoc1-18" edge="1">
          <mxGeometry relative="1" as="geometry">
            <mxPoint x="1319.6799999999998" y="780" as="sourcePoint" />
            <mxPoint x="1420" y="816" as="targetPoint" />
          </mxGeometry>
        </mxCell>
        <mxCell id="SZb_EIpK2yRwcwNHgwDC-47" value="" style="resizable=0;html=1;align=left;verticalAlign=bottom;" parent="SZb_EIpK2yRwcwNHgwDC-46" connectable="0" vertex="1">
          <mxGeometry x="-1" relative="1" as="geometry" />
        </mxCell>
        <mxCell id="SZb_EIpK2yRwcwNHgwDC-48" value="" style="endArrow=none;html=1;rounded=0;dashed=1;dashPattern=1 2;fontSize=12;entryX=-0.001;entryY=0.892;entryDx=0;entryDy=0;exitX=0.25;exitY=0;exitDx=0;exitDy=0;entryPerimeter=0;" parent="1" source="SZb_EIpK2yRwcwNHgwDC-40" target="bkK7I-Fg07HYIx4hsoc1-40" edge="1">
          <mxGeometry relative="1" as="geometry">
            <mxPoint x="1319.9999999999998" y="840" as="sourcePoint" />
            <mxPoint x="1420.32" y="876" as="targetPoint" />
          </mxGeometry>
        </mxCell>
        <mxCell id="SZb_EIpK2yRwcwNHgwDC-49" value="" style="resizable=0;html=1;align=left;verticalAlign=bottom;" parent="SZb_EIpK2yRwcwNHgwDC-48" connectable="0" vertex="1">
          <mxGeometry x="-1" relative="1" as="geometry" />
        </mxCell>
        <mxCell id="bkK7I-Fg07HYIx4hsoc1-36" value="Libreria" style="swimlane;fontStyle=0;childLayout=stackLayout;horizontal=1;startSize=26;horizontalStack=0;resizeParent=1;resizeParentMax=0;resizeLast=0;collapsible=1;marginBottom=0;align=center;fontSize=14;" parent="1" vertex="1">
          <mxGeometry x="860" y="-30" width="160" height="238" as="geometry" />
        </mxCell>
        <mxCell id="bkK7I-Fg07HYIx4hsoc1-37" value="-idLibreria : int" style="text;strokeColor=none;fillColor=none;spacingLeft=4;spacingRight=4;overflow=hidden;rotatable=0;points=[[0,0.5],[1,0.5]];portConstraint=eastwest;fontSize=12;" parent="bkK7I-Fg07HYIx4hsoc1-36" vertex="1">
          <mxGeometry y="26" width="160" height="26" as="geometry" />
        </mxCell>
        <mxCell id="bkK7I-Fg07HYIx4hsoc1-38" value="-nombreLibreria : String" style="text;strokeColor=none;fillColor=none;spacingLeft=4;spacingRight=4;overflow=hidden;rotatable=0;points=[[0,0.5],[1,0.5]];portConstraint=eastwest;fontSize=12;" parent="bkK7I-Fg07HYIx4hsoc1-36" vertex="1">
          <mxGeometry y="52" width="160" height="26" as="geometry" />
        </mxCell>
        <mxCell id="bkK7I-Fg07HYIx4hsoc1-40" value="-nombreDueño: String" style="text;strokeColor=none;fillColor=none;spacingLeft=4;spacingRight=4;overflow=hidden;rotatable=0;points=[[0,0.5],[1,0.5]];portConstraint=eastwest;fontSize=12;" parent="bkK7I-Fg07HYIx4hsoc1-36" vertex="1">
          <mxGeometry y="78" width="160" height="32" as="geometry" />
        </mxCell>
        <mxCell id="bkK7I-Fg07HYIx4hsoc1-67" value="-direccion : String" style="text;strokeColor=none;fillColor=none;spacingLeft=4;spacingRight=4;overflow=hidden;rotatable=0;points=[[0,0.5],[1,0.5]];portConstraint=eastwest;fontSize=12;" parent="bkK7I-Fg07HYIx4hsoc1-36" vertex="1">
          <mxGeometry y="110" width="160" height="32" as="geometry" />
        </mxCell>
        <mxCell id="bkK7I-Fg07HYIx4hsoc1-41" value="-ciudad : String" style="text;strokeColor=none;fillColor=none;spacingLeft=4;spacingRight=4;overflow=hidden;rotatable=0;points=[[0,0.5],[1,0.5]];portConstraint=eastwest;fontSize=12;" parent="bkK7I-Fg07HYIx4hsoc1-36" vertex="1">
          <mxGeometry y="142" width="160" height="32" as="geometry" />
        </mxCell>
        <mxCell id="bkK7I-Fg07HYIx4hsoc1-42" value="-nivelPermiso : int" style="text;strokeColor=none;fillColor=none;spacingLeft=4;spacingRight=4;overflow=hidden;rotatable=0;points=[[0,0.5],[1,0.5]];portConstraint=eastwest;fontSize=12;" parent="bkK7I-Fg07HYIx4hsoc1-36" vertex="1">
          <mxGeometry y="174" width="160" height="32" as="geometry" />
        </mxCell>
        <mxCell id="bkK7I-Fg07HYIx4hsoc1-43" value="-email : String" style="text;strokeColor=none;fillColor=none;spacingLeft=4;spacingRight=4;overflow=hidden;rotatable=0;points=[[0,0.5],[1,0.5]];portConstraint=eastwest;fontSize=12;" parent="bkK7I-Fg07HYIx4hsoc1-36" vertex="1">
          <mxGeometry y="206" width="160" height="32" as="geometry" />
        </mxCell>
        <mxCell id="SZb_EIpK2yRwcwNHgwDC-57" value="" style="endArrow=block;dashed=1;endFill=0;endSize=12;html=1;exitX=0;exitY=0.5;exitDx=0;exitDy=0;entryX=1;entryY=0.5;entryDx=0;entryDy=0;" parent="1" source="SZb_EIpK2yRwcwNHgwDC-25" target="SZb_EIpK2yRwcwNHgwDC-53" edge="1">
          <mxGeometry width="160" relative="1" as="geometry">
            <mxPoint x="1270" y="484" as="sourcePoint" />
            <mxPoint x="1120" y="484" as="targetPoint" />
          </mxGeometry>
        </mxCell>
        <mxCell id="SZb_EIpK2yRwcwNHgwDC-60" value="&lt;&lt;interface&gt;&gt;&#xa;LibreriaLibroService" style="swimlane;fontStyle=0;childLayout=stackLayout;horizontal=1;startSize=40;horizontalStack=0;resizeParent=1;resizeParentMax=0;resizeLast=0;collapsible=1;marginBottom=0;align=center;fontSize=14;" parent="1" vertex="1">
          <mxGeometry x="184" y="615" width="460" height="248" as="geometry" />
        </mxCell>
        <mxCell id="SZb_EIpK2yRwcwNHgwDC-61" value="+save(LibreriaLibroDTORequest dto) : HrefEntityDTO" style="text;strokeColor=none;fillColor=none;spacingLeft=4;spacingRight=4;overflow=hidden;rotatable=0;points=[[0,0.5],[1,0.5]];portConstraint=eastwest;fontSize=12;" parent="SZb_EIpK2yRwcwNHgwDC-60" vertex="1">
          <mxGeometry y="40" width="460" height="26" as="geometry" />
        </mxCell>
        <mxCell id="SZb_EIpK2yRwcwNHgwDC-62" value="+findById(int id) : LibreriaLibroDTO" style="text;strokeColor=none;fillColor=none;spacingLeft=4;spacingRight=4;overflow=hidden;rotatable=0;points=[[0,0.5],[1,0.5]];portConstraint=eastwest;fontSize=12;" parent="SZb_EIpK2yRwcwNHgwDC-60" vertex="1">
          <mxGeometry y="66" width="460" height="26" as="geometry" />
        </mxCell>
        <mxCell id="SZb_EIpK2yRwcwNHgwDC-63" value="+findAll() : List&lt;LibreriaLibroDTO&gt;" style="text;strokeColor=none;fillColor=none;spacingLeft=4;spacingRight=4;overflow=hidden;rotatable=0;points=[[0,0.5],[1,0.5]];portConstraint=eastwest;fontSize=12;" parent="SZb_EIpK2yRwcwNHgwDC-60" vertex="1">
          <mxGeometry y="92" width="460" height="26" as="geometry" />
        </mxCell>
        <mxCell id="SZb_EIpK2yRwcwNHgwDC-64" value="+update(LibreriaLibroDTORequest dto, int id) : HrefEntityDTO" style="text;strokeColor=none;fillColor=none;spacingLeft=4;spacingRight=4;overflow=hidden;rotatable=0;points=[[0,0.5],[1,0.5]];portConstraint=eastwest;fontSize=12;" parent="SZb_EIpK2yRwcwNHgwDC-60" vertex="1">
          <mxGeometry y="118" width="460" height="26" as="geometry" />
        </mxCell>
        <mxCell id="SZb_EIpK2yRwcwNHgwDC-65" value="+delete(int id) : HrefEntityDTO" style="text;strokeColor=none;fillColor=none;spacingLeft=4;spacingRight=4;overflow=hidden;rotatable=0;points=[[0,0.5],[1,0.5]];portConstraint=eastwest;fontSize=12;" parent="SZb_EIpK2yRwcwNHgwDC-60" vertex="1">
          <mxGeometry y="144" width="460" height="26" as="geometry" />
        </mxCell>
        <mxCell id="hye1ik-mMk8FVh-fmaRb-22" value="+findByTituloContaining(String titulo, Pageable pageable) : Page&lt;LibreriaLibroDTO&gt;" style="text;strokeColor=none;fillColor=none;spacingLeft=4;spacingRight=4;overflow=hidden;rotatable=0;points=[[0,0.5],[1,0.5]];portConstraint=eastwest;fontSize=12;" vertex="1" parent="SZb_EIpK2yRwcwNHgwDC-60">
          <mxGeometry y="170" width="460" height="26" as="geometry" />
        </mxCell>
        <mxCell id="hye1ik-mMk8FVh-fmaRb-21" value="+findByLibraryId(int idLibreria, Pageable pageable) : Page&lt;LibreriaLibroDTO&gt;" style="text;strokeColor=none;fillColor=none;spacingLeft=4;spacingRight=4;overflow=hidden;rotatable=0;points=[[0,0.5],[1,0.5]];portConstraint=eastwest;fontSize=12;" vertex="1" parent="SZb_EIpK2yRwcwNHgwDC-60">
          <mxGeometry y="196" width="460" height="26" as="geometry" />
        </mxCell>
        <mxCell id="hye1ik-mMk8FVh-fmaRb-23" value="+findByLibraryNotId(int idLibreria, Pageable pageable) : Page&lt;LibreriaLibroDTO&gt;" style="text;strokeColor=none;fillColor=none;spacingLeft=4;spacingRight=4;overflow=hidden;rotatable=0;points=[[0,0.5],[1,0.5]];portConstraint=eastwest;fontSize=12;" vertex="1" parent="SZb_EIpK2yRwcwNHgwDC-60">
          <mxGeometry y="222" width="460" height="26" as="geometry" />
        </mxCell>
        <mxCell id="SZb_EIpK2yRwcwNHgwDC-66" value="" style="endArrow=block;dashed=1;endFill=0;endSize=12;html=1;entryX=1;entryY=0.5;entryDx=0;entryDy=0;exitX=0;exitY=0.5;exitDx=0;exitDy=0;" parent="1" source="SZb_EIpK2yRwcwNHgwDC-44" target="SZb_EIpK2yRwcwNHgwDC-62" edge="1">
          <mxGeometry width="160" relative="1" as="geometry">
            <mxPoint x="1580" y="1054" as="sourcePoint" />
            <mxPoint x="1720" y="1045" as="targetPoint" />
          </mxGeometry>
        </mxCell>
        <mxCell id="hye1ik-mMk8FVh-fmaRb-1" value="Usuario" style="swimlane;fontStyle=0;childLayout=stackLayout;horizontal=1;startSize=26;horizontalStack=0;resizeParent=1;resizeParentMax=0;resizeLast=0;collapsible=1;marginBottom=0;align=center;fontSize=14;" vertex="1" parent="1">
          <mxGeometry x="1050" y="-250" width="160" height="142" as="geometry" />
        </mxCell>
        <mxCell id="hye1ik-mMk8FVh-fmaRb-2" value="-id : int" style="text;strokeColor=none;fillColor=none;spacingLeft=4;spacingRight=4;overflow=hidden;rotatable=0;points=[[0,0.5],[1,0.5]];portConstraint=eastwest;fontSize=12;" vertex="1" parent="hye1ik-mMk8FVh-fmaRb-1">
          <mxGeometry y="26" width="160" height="26" as="geometry" />
        </mxCell>
        <mxCell id="hye1ik-mMk8FVh-fmaRb-3" value="-username : String" style="text;strokeColor=none;fillColor=none;spacingLeft=4;spacingRight=4;overflow=hidden;rotatable=0;points=[[0,0.5],[1,0.5]];portConstraint=eastwest;fontSize=12;" vertex="1" parent="hye1ik-mMk8FVh-fmaRb-1">
          <mxGeometry y="52" width="160" height="26" as="geometry" />
        </mxCell>
        <mxCell id="hye1ik-mMk8FVh-fmaRb-4" value="-password : String" style="text;strokeColor=none;fillColor=none;spacingLeft=4;spacingRight=4;overflow=hidden;rotatable=0;points=[[0,0.5],[1,0.5]];portConstraint=eastwest;fontSize=12;" vertex="1" parent="hye1ik-mMk8FVh-fmaRb-1">
          <mxGeometry y="78" width="160" height="32" as="geometry" />
        </mxCell>
        <mxCell id="hye1ik-mMk8FVh-fmaRb-5" value="-role : String" style="text;strokeColor=none;fillColor=none;spacingLeft=4;spacingRight=4;overflow=hidden;rotatable=0;points=[[0,0.5],[1,0.5]];portConstraint=eastwest;fontSize=12;" vertex="1" parent="hye1ik-mMk8FVh-fmaRb-1">
          <mxGeometry y="110" width="160" height="32" as="geometry" />
        </mxCell>
        <mxCell id="hye1ik-mMk8FVh-fmaRb-10" value="" style="endArrow=none;html=1;rounded=0;dashed=1;dashPattern=1 2;fontSize=12;entryX=0;entryY=0.5;entryDx=0;entryDy=0;exitX=0.5;exitY=0;exitDx=0;exitDy=0;" edge="1" parent="1" source="bkK7I-Fg07HYIx4hsoc1-36" target="hye1ik-mMk8FVh-fmaRb-4">
          <mxGeometry relative="1" as="geometry">
            <mxPoint x="870" y="-40" as="sourcePoint" />
            <mxPoint x="860" y="-280" as="targetPoint" />
          </mxGeometry>
        </mxCell>
        <mxCell id="hye1ik-mMk8FVh-fmaRb-11" value="" style="resizable=0;html=1;align=left;verticalAlign=bottom;" connectable="0" vertex="1" parent="hye1ik-mMk8FVh-fmaRb-10">
          <mxGeometry x="-1" relative="1" as="geometry" />
        </mxCell>
        <mxCell id="hye1ik-mMk8FVh-fmaRb-12" value="" style="endArrow=none;html=1;rounded=0;dashed=1;dashPattern=1 2;fontSize=12;entryX=1;entryY=0.5;entryDx=0;entryDy=0;exitX=0.5;exitY=0;exitDx=0;exitDy=0;" edge="1" parent="1" source="bkK7I-Fg07HYIx4hsoc1-56" target="hye1ik-mMk8FVh-fmaRb-4">
          <mxGeometry relative="1" as="geometry">
            <mxPoint x="1210" y="271.5" as="sourcePoint" />
            <mxPoint x="1460" y="-181.5" as="targetPoint" />
          </mxGeometry>
        </mxCell>
        <mxCell id="hye1ik-mMk8FVh-fmaRb-13" value="" style="resizable=0;html=1;align=left;verticalAlign=bottom;" connectable="0" vertex="1" parent="hye1ik-mMk8FVh-fmaRb-12">
          <mxGeometry x="-1" relative="1" as="geometry" />
        </mxCell>
        <mxCell id="hye1ik-mMk8FVh-fmaRb-14" value="&lt;&lt;interface&gt;&gt;&#xa;UsuarioService" style="swimlane;fontStyle=0;childLayout=stackLayout;horizontal=1;startSize=40;horizontalStack=0;resizeParent=1;resizeParentMax=0;resizeLast=0;collapsible=1;marginBottom=0;align=center;fontSize=14;" vertex="1" parent="1">
          <mxGeometry x="1370" y="-264" width="330" height="170" as="geometry" />
        </mxCell>
        <mxCell id="hye1ik-mMk8FVh-fmaRb-15" value="+save(UsuarioDTORequestdto) : HrefEntityDTO" style="text;strokeColor=none;fillColor=none;spacingLeft=4;spacingRight=4;overflow=hidden;rotatable=0;points=[[0,0.5],[1,0.5]];portConstraint=eastwest;fontSize=12;" vertex="1" parent="hye1ik-mMk8FVh-fmaRb-14">
          <mxGeometry y="40" width="330" height="26" as="geometry" />
        </mxCell>
        <mxCell id="hye1ik-mMk8FVh-fmaRb-16" value="+findById(int id) : UsuarioDTO" style="text;strokeColor=none;fillColor=none;spacingLeft=4;spacingRight=4;overflow=hidden;rotatable=0;points=[[0,0.5],[1,0.5]];portConstraint=eastwest;fontSize=12;" vertex="1" parent="hye1ik-mMk8FVh-fmaRb-14">
          <mxGeometry y="66" width="330" height="26" as="geometry" />
        </mxCell>
        <mxCell id="hye1ik-mMk8FVh-fmaRb-17" value="+update(UsuarioDTORequest) : List&lt;ClienteDTO&gt;" style="text;strokeColor=none;fillColor=none;spacingLeft=4;spacingRight=4;overflow=hidden;rotatable=0;points=[[0,0.5],[1,0.5]];portConstraint=eastwest;fontSize=12;" vertex="1" parent="hye1ik-mMk8FVh-fmaRb-14">
          <mxGeometry y="92" width="330" height="26" as="geometry" />
        </mxCell>
        <mxCell id="hye1ik-mMk8FVh-fmaRb-18" value="+findAllUser(Pageable) : Page&lt;UsuarioDTO&gt;" style="text;strokeColor=none;fillColor=none;spacingLeft=4;spacingRight=4;overflow=hidden;rotatable=0;points=[[0,0.5],[1,0.5]];portConstraint=eastwest;fontSize=12;" vertex="1" parent="hye1ik-mMk8FVh-fmaRb-14">
          <mxGeometry y="118" width="330" height="26" as="geometry" />
        </mxCell>
        <mxCell id="hye1ik-mMk8FVh-fmaRb-19" value="+findAllAdmin(Pageable) : Page&lt;UsuarioAdminDTO&gt;" style="text;strokeColor=none;fillColor=none;spacingLeft=4;spacingRight=4;overflow=hidden;rotatable=0;points=[[0,0.5],[1,0.5]];portConstraint=eastwest;fontSize=12;" vertex="1" parent="hye1ik-mMk8FVh-fmaRb-14">
          <mxGeometry y="144" width="330" height="26" as="geometry" />
        </mxCell>
        <mxCell id="hye1ik-mMk8FVh-fmaRb-20" value="" style="endArrow=block;dashed=1;endFill=0;endSize=12;html=1;exitX=1;exitY=0.5;exitDx=0;exitDy=0;entryX=0;entryY=0.5;entryDx=0;entryDy=0;" edge="1" parent="1" source="hye1ik-mMk8FVh-fmaRb-3" target="hye1ik-mMk8FVh-fmaRb-16">
          <mxGeometry width="160" relative="1" as="geometry">
            <mxPoint x="1570" y="64" as="sourcePoint" />
            <mxPoint x="1710" y="23" as="targetPoint" />
          </mxGeometry>
        </mxCell>
      </root>
    </mxGraphModel>
  </diagram>
</mxfile>
